<svg width="71" height="80" viewBox="0 0 71 80" fill="none" xmlns="http://www.w3.org/2000/svg">
<g clip-path="url(#clip0)">
<g opacity="0.3" filter="url(#filter0_d)">
<path opacity="0.31" d="M35.6953 79.9998C54.9662 79.9998 70.5883 78.9145 70.5883 77.5756C70.5883 76.2367 54.9662 75.1514 35.6953 75.1514C16.4244 75.1514 0.802246 76.2367 0.802246 77.5756C0.802246 78.9145 16.4244 79.9998 35.6953 79.9998Z" fill="#404041"/>
</g>
<path d="M44.1901 76.0396H25.1526L26.4392 67.8788H42.9035L44.1901 76.0396Z" fill="#B4B4B4"/>
<path d="M26.4393 67.8788L25.7959 71.9573H43.5468L42.9035 67.8788H26.4393Z" fill="#6C6C6C" fill-opacity="0.6"/>
<path d="M48.7531 78.103H20.1071C20.1071 76.962 21.0235 76.0393 22.1567 76.0393H46.7035C47.8368 76.0393 48.7531 76.962 48.7531 78.103Z" fill="white"/>
<path d="M67.2819 68.4158H2.44607C1.09587 68.4158 0 67.3124 0 65.9529V15.9562C0 14.5967 1.09587 13.4933 2.44607 13.4933H67.2819C68.6321 13.4933 69.728 14.5967 69.728 15.9562V65.9529C69.7242 67.3162 68.6284 68.4158 67.2819 68.4158Z" fill="#242424"/>
<path d="M66.2533 16.6908H3.47456V65.2188H66.2533V16.6908Z" fill="#333939"/>
<path d="M39.5036 16.6908L3.47456 57.1484V65.2225H19.0935L54.2549 16.6908H39.5036Z" fill="#404646"/>
<path d="M23.2077 65.0907L58.0287 16.6908H66.2496L36.2646 65.0907H23.2077Z" fill="#404646"/>
<g opacity="0.27">
<g opacity="0.27">
<path opacity="0.27" d="M58.9263 13.6326V56.1878C58.9263 58.0406 57.4377 59.5395 55.5976 59.5395H18.8841C17.0439 59.5395 15.5553 58.0406 15.5553 56.1878V13.6326H58.9263Z" fill="#333939"/>
</g>
</g>
<path d="M59.263 0L54.8496 13.4934V15.3801V54.0639C54.8496 55.0016 54.0903 55.7624 53.159 55.7624H11.7703C10.839 55.7624 10.0798 55.0016 10.0798 54.0639L10.076 8.03276C10.076 3.59648 12.7203 0 17.1225 0H59.263Z" fill="#F8F9FA"/>
<path d="M64.503 6.19875V13.4934H54.8497V5.15558C54.8684 4.80911 54.9955 3.92412 54.9955 3.92035C55.2125 2.77927 55.7211 1.43859 56.8806 0.659041C57.4827 0.256084 58.2607 0 59.2631 0C59.8839 0 60.43 0.101681 60.9125 0.274914C64.23 1.47625 64.503 6.19875 64.503 6.19875Z" fill="#B3B4B4"/>
<path d="M59.682 6.19876V13.4934H54.8497V5.1556C54.8684 4.80913 54.9955 3.92413 54.9955 3.92037C55.2125 2.77929 55.7211 1.43861 56.8806 0.659058C59.4538 2.25205 59.682 6.19876 59.682 6.19876Z" fill="#999999"/>
<path d="M22.4673 14.2203H16.7934C16.5877 14.2203 16.4194 14.0508 16.4194 13.8437V8.13075C16.4194 7.92362 16.5877 7.75415 16.7934 7.75415H22.4673C22.673 7.75415 22.8413 7.92362 22.8413 8.13075V13.8437C22.8413 14.0508 22.673 14.2203 22.4673 14.2203ZM17.1674 13.4671H22.0932V8.50734H17.1674V13.4671Z" fill="#C5C5C4"/>
<path d="M46.6886 8.88405H25.1677C24.962 8.88405 24.7937 8.71458 24.7937 8.50745C24.7937 8.30033 24.962 8.13086 25.1677 8.13086H46.6886C46.8943 8.13086 47.0626 8.30033 47.0626 8.50745C47.0626 8.71458 46.8943 8.88405 46.6886 8.88405Z" fill="#C5C5C4"/>
<path d="M46.539 11.1436H25.1677C24.962 11.1436 24.7937 10.9741 24.7937 10.767C24.7937 10.5598 24.962 10.3904 25.1677 10.3904H46.5428C46.7485 10.3904 46.9168 10.5598 46.9168 10.767C46.9168 10.9741 46.7447 11.1436 46.539 11.1436Z" fill="#C5C5C4"/>
<path d="M39.1971 13.3992H25.1677C24.962 13.3992 24.7937 13.2297 24.7937 13.0226C24.7937 12.8155 24.962 12.646 25.1677 12.646H39.1971C39.4028 12.646 39.5711 12.8155 39.5711 13.0226C39.5711 13.2297 39.4028 13.3992 39.1971 13.3992Z" fill="#C5C5C4"/>
<path d="M22.4673 24.8402H16.7934C16.5877 24.8402 16.4194 24.6707 16.4194 24.4636V18.7506C16.4194 18.5435 16.5877 18.374 16.7934 18.374H22.4673C22.673 18.374 22.8413 18.5435 22.8413 18.7506V24.4636C22.8413 24.6707 22.673 24.8402 22.4673 24.8402ZM17.1674 24.087H22.0932V19.1272H17.1674V24.087Z" fill="#C5C5C4"/>
<path d="M46.6886 19.726H25.1677C24.962 19.726 24.7937 19.5565 24.7937 19.3494C24.7937 19.1422 24.962 18.9728 25.1677 18.9728H46.6886C46.8943 18.9728 47.0626 19.1422 47.0626 19.3494C47.0626 19.5565 46.8943 19.726 46.6886 19.726Z" fill="#C5C5C4"/>
<path d="M46.539 21.9857H25.1677C24.962 21.9857 24.7937 21.8163 24.7937 21.6091C24.7937 21.402 24.962 21.2325 25.1677 21.2325H46.5428C46.7485 21.2325 46.9168 21.402 46.9168 21.6091C46.9168 21.8163 46.7447 21.9857 46.539 21.9857Z" fill="#C5C5C4"/>
<path d="M39.1971 24.2451H25.1677C24.962 24.2451 24.7937 24.0757 24.7937 23.8685C24.7937 23.6614 24.962 23.4919 25.1677 23.4919H39.1971C39.4028 23.4919 39.5711 23.6614 39.5711 23.8685C39.5711 24.0757 39.4028 24.2451 39.1971 24.2451Z" fill="#C5C5C4"/>
<path d="M22.4673 35.4638H16.7934C16.5877 35.4638 16.4194 35.2943 16.4194 35.0872V29.3705C16.4194 29.1634 16.5877 28.9939 16.7934 28.9939H22.4673C22.673 28.9939 22.8413 29.1634 22.8413 29.3705V35.0834C22.8413 35.2943 22.673 35.4638 22.4673 35.4638ZM17.1674 34.7106H22.0932V29.7471H17.1674V34.7106Z" fill="#C5C5C4"/>
<path d="M46.6886 30.3458H25.1677C24.962 30.3458 24.7937 30.1764 24.7937 29.9692C24.7937 29.7621 24.962 29.5927 25.1677 29.5927H46.6886C46.8943 29.5927 47.0626 29.7621 47.0626 29.9692C47.0626 30.1764 46.8943 30.3458 46.6886 30.3458Z" fill="#C5C5C4"/>
<path d="M46.539 32.6055H25.1677C24.962 32.6055 24.7937 32.436 24.7937 32.2289C24.7937 32.0218 24.962 31.8523 25.1677 31.8523H46.5428C46.7485 31.8523 46.9168 32.0218 46.9168 32.2289C46.9168 32.436 46.7447 32.6055 46.539 32.6055Z" fill="#C5C5C4"/>
<path d="M39.1971 34.865H25.1677C24.962 34.865 24.7937 34.6955 24.7937 34.4884C24.7937 34.2813 24.962 34.1118 25.1677 34.1118H39.1971C39.4028 34.1118 39.5711 34.2813 39.5711 34.4884C39.5711 34.6955 39.4028 34.865 39.1971 34.865Z" fill="#C5C5C4"/>
<path d="M22.4673 46.0838H16.7934C16.5877 46.0838 16.4194 45.9143 16.4194 45.7072V39.9943C16.4194 39.7871 16.5877 39.6177 16.7934 39.6177H22.4673C22.673 39.6177 22.8413 39.7871 22.8413 39.9943V45.7072C22.8413 45.9143 22.673 46.0838 22.4673 46.0838ZM17.1674 45.3306H22.0932V40.3709H17.1674V45.3306Z" fill="#C5C5C4"/>
<path d="M46.6886 40.9658H25.1677C24.962 40.9658 24.7937 40.7964 24.7937 40.5892C24.7937 40.3821 24.962 40.2126 25.1677 40.2126H46.6886C46.8943 40.2126 47.0626 40.3821 47.0626 40.5892C47.0626 40.7964 46.8943 40.9658 46.6886 40.9658Z" fill="#C5C5C4"/>
<path d="M46.539 43.2254H25.1677C24.962 43.2254 24.7937 43.0559 24.7937 42.8488C24.7937 42.6416 24.962 42.4722 25.1677 42.4722H46.5428C46.7485 42.4722 46.9168 42.6416 46.9168 42.8488C46.9168 43.0559 46.7447 43.2254 46.539 43.2254Z" fill="#C5C5C4"/>
<path d="M39.1971 45.4851H25.1677C24.962 45.4851 24.7937 45.3157 24.7937 45.1085C24.7937 44.9014 24.962 44.7319 25.1677 44.7319H39.1971C39.4028 44.7319 39.5711 44.9014 39.5711 45.1085C39.5711 45.3157 39.4028 45.4851 39.1971 45.4851Z" fill="#C5C5C4"/>
<path d="M57.2657 48.5394C64.2703 48.5394 69.9486 42.822 69.9486 35.7691C69.9486 28.7162 64.2703 22.9988 57.2657 22.9988C50.2612 22.9988 44.5828 28.7162 44.5828 35.7691C44.5828 42.822 50.2612 48.5394 57.2657 48.5394Z" fill="#FFCC05"/>
<path d="M55.605 42.9132C55.1263 42.9132 54.6476 42.7287 54.281 42.3634L49.056 37.1024C48.3267 36.368 48.3267 35.1742 49.056 34.4398C49.7853 33.7055 50.971 33.7055 51.7003 34.4398L55.6013 38.3677L62.8273 31.0919C63.5566 30.3575 64.7423 30.3575 65.4716 31.0919C66.2009 31.8263 66.2009 33.0201 65.4716 33.7544L56.9253 42.3596C56.5625 42.7287 56.0838 42.9132 55.605 42.9132Z" fill="white"/>
<path d="M19.9089 44.7019C19.7593 44.7019 19.6172 44.6416 19.5125 44.5362L17.9565 42.9695C17.7359 42.7473 17.7359 42.3896 17.9565 42.1712C18.1772 41.949 18.5325 41.949 18.7495 42.1712L19.9089 43.3386L22.0707 41.1619C22.2914 40.9397 22.6467 40.9397 22.8637 41.1619C23.0843 41.3841 23.0843 41.7418 22.8637 41.9603L20.3054 44.5362C20.2007 44.6416 20.0585 44.7019 19.9089 44.7019Z" fill="#FFCC05"/>
<path d="M19.9089 34.0816C19.7593 34.0816 19.6172 34.0214 19.5125 33.9159L17.9565 32.3493C17.7359 32.1271 17.7359 31.7693 17.9565 31.5509C18.1772 31.3287 18.5325 31.3287 18.7495 31.5509L19.9089 32.7184L22.0707 30.5416C22.2914 30.3195 22.6467 30.3195 22.8637 30.5416C23.0843 30.7638 23.0843 31.1216 22.8637 31.34L20.3054 33.9159C20.2007 34.0214 20.0585 34.0816 19.9089 34.0816Z" fill="#FFCC05"/>
<path d="M19.9089 23.4618C19.7593 23.4618 19.6172 23.4015 19.5125 23.2961L17.9565 21.7294C17.7359 21.5072 17.7359 21.1495 17.9565 20.931C18.1772 20.7089 18.5325 20.7089 18.7495 20.931L19.9089 22.0985L22.0707 19.9218C22.2914 19.6996 22.6467 19.6996 22.8637 19.9218C23.0843 20.144 23.0843 20.5017 22.8637 20.7202L20.3054 23.2961C20.2007 23.4015 20.0585 23.4618 19.9089 23.4618Z" fill="#FFCC05"/>
<path d="M19.9089 12.838C19.7668 12.838 19.6209 12.7815 19.5125 12.6723L17.9565 11.1056C17.7359 10.8835 17.7359 10.5257 17.9565 10.3073C18.1772 10.0851 18.5325 10.0851 18.7495 10.3073L19.9089 11.4747L22.0707 9.29799C22.2914 9.0758 22.6467 9.0758 22.8637 9.29799C23.0843 9.52018 23.0843 9.87795 22.8637 10.0964L20.3054 12.6723C20.1969 12.7853 20.051 12.838 19.9089 12.838Z" fill="#FFCC05"/>
</g>
<defs>
<filter id="filter0_d" x="-3.19775" y="75.1514" width="77.7861" height="12.8485" filterUnits="userSpaceOnUse" color-interpolation-filters="sRGB">
<feFlood flood-opacity="0" result="BackgroundImageFix"/>
<feColorMatrix in="SourceAlpha" type="matrix" values="0 0 0 0 0 0 0 0 0 0 0 0 0 0 0 0 0 0 127 0"/>
<feOffset dy="4"/>
<feGaussianBlur stdDeviation="2"/>
<feColorMatrix type="matrix" values="0 0 0 0 0 0 0 0 0 0 0 0 0 0 0 0 0 0 0.25 0"/>
<feBlend mode="normal" in2="BackgroundImageFix" result="effect1_dropShadow"/>
<feBlend mode="normal" in="SourceGraphic" in2="effect1_dropShadow" result="shape"/>
</filter>
<clipPath id="clip0">
<rect width="70.5882" height="80" fill="white"/>
</clipPath>
</defs>
</svg>
